<?xml version="1.0" ?><svg height="1024" preserveAspectRatio="xMidYMid meet" width="1024" xmlns="http://www.w3.org/2000/svg"><g><title/><rect fill="none" height="1026" id="canvas_background" width="1026" x="-1" y="-1"/></g><g><title/><g fill="#000000" id="svg_1" transform="translate(0,1024) scale(0.10000000149011612,-0.10000000149011612) "><path d="m4875,9439c-807,-46 -1617,-332 -2270,-803c-432,-312 -828,-726 -1110,-1161c-608,-940 -830,-2052 -629,-3155c186,-1020 747,-1952 1564,-2602c987,-785 2245,-1099 3490,-872c1019,186 1953,747 2602,1564c785,987 1099,2244 872,3490c-186,1020 -747,1952 -1564,2602c-713,567 -1552,886 -2470,938c-195,11 -280,11 -485,-1zm-1623,-1584c112,-23 193,-68 279,-154c118,-118 172,-252 172,-422c-1,-145 -51,-273 -148,-373c-210,-219 -573,-258 -827,-90c-137,91 -226,234 -250,397c-16,115 4,246 53,345c68,140 229,262 389,296c85,19 248,19 332,1zm3553,-1530c149,-23 237,-50 370,-115c395,-193 628,-579 707,-1170c10,-72 13,-383 13,-1300l0,-1205l-580,0l-580,0l-6,1155c-6,1244 -3,1185 -57,1340c-62,179 -173,292 -337,343c-92,28 -270,30 -359,3c-164,-49 -286,-153 -368,-312c-88,-170 -81,-61 -86,-1371l-3,-1163l-584,0l-583,0l-6,1728c-4,950 -9,1789 -12,1865l-6,137l501,0l500,0l5,-32c7,-40 56,-460 56,-477c0,-26 22,-6 74,69c146,207 335,355 559,435c83,30 241,68 322,78c84,11 369,6 460,-8zm-3135,-1930l0,-1865l-580,0l-580,0l0,1865l0,1865l580,0l580,0l0,-1865z" fill="#007bb6" id="svg_2"/></g></g></svg>